<svg xmlns="http://www.w3.org/2000/svg" viewBox="88 254.848 399.01 65.303"> <g transform="rotate(0 124.9797588602801 287.5)"><svg xmlns="http://www.w3.org/2000/svg" xmlns:xlink="http://www.w3.org/1999/xlink" xmlnsSerif="http://www.serif.com/" viewBox="766.430908203125 857.1939086914062 1467.151611328125 1285.612548828125" version="1.1" xml:space="preserve" height="61.30302324704831" width="69.95951772056016" y="256.84848837647587" x="90.00000000000003" preserveAspectRatio="xMinYMin" fill-rule="evenodd" clip-rule="evenodd" stroke-linejoin="round" stroke-miterlimit="2" style="overflow: visible;"><path transform="matrix(3.50759,0,0,3.50759,-1537.74,-658.997)" d="M656.91,798.783L744.579,538.475L678.536,472.432L788.536,472.432L856.104,540L656.91,798.783Z" style="fill: #ffffff; fill-opacity: 1;"></path><path transform="matrix(3.50759,0,0,3.50759,-1547.74,-658.997)" d="M799.357,665.689L979.035,432.26L1078.04,432.26L913.751,645.689L921.578,645.689L1008.5,758.611L909.497,758.611L837.973,665.689L799.357,665.689Z" style="fill: #ffffff; fill-opacity: 1;"></path></svg></g> <g transform="rotate(0 328.6151266424308 287.499546207767)"><svg y="278.3045465129428" viewBox="2.109999895095825 6.5 312.7900085449219 18.389999389648438" x="172.22012236996986" height="18.389999389648438" width="312.7900085449219" style="overflow: visible;"><g fill="#ffffff" fill-opacity="1" style=""><path d="M8.69 17.50L5.79 20.53L5.56 15.78L14.07 6.81L18.65 6.81L10.97 15.06L8.69 17.50ZM6.20 24.59L2.11 24.59L2.11 6.81L6.20 6.81L6.20 24.59ZM19.08 24.59L14.28 24.59L7.95 16.84L10.64 13.92L19.08 24.59ZM31.37 24.59L27.26 24.59L27.26 6.81L34.85 6.81Q38.56 6.81 40.62 8.52Q42.68 10.24 42.68 13.26L42.68 13.26Q42.68 15.24 41.74 16.68Q40.80 18.11 39.07 18.87Q37.34 19.64 34.95 19.64L34.95 19.64L29.54 19.64L31.37 17.83L31.37 24.59ZM43.01 24.59L38.56 24.59L34.12 18.14L38.51 18.14L43.01 24.59ZM31.37 8.21L31.37 18.29L29.54 16.36L34.73 16.36Q36.63 16.36 37.57 15.53Q38.51 14.71 38.51 13.26L38.51 13.26Q38.51 11.79 37.57 10.97Q36.63 10.16 34.73 10.16L34.73 10.16L29.54 10.16L31.37 8.21ZM54.16 24.59L49.94 24.59L57.87 6.81L61.93 6.81L69.88 24.59L65.57 24.59L59.06 8.89L60.69 8.89L54.16 24.59ZM65.26 20.78L53.91 20.78L55.00 17.66L64.14 17.66L65.26 20.78ZM85.89 24.59L81.77 24.59L81.77 10.16L76.08 10.16L76.08 6.81L91.58 6.81L91.58 10.16L85.89 10.16L85.89 24.59ZM108.78 24.89L108.78 24.89Q106.67 24.89 104.88 24.21Q103.09 23.52 101.78 22.28Q100.47 21.03 99.75 19.36Q99.02 17.68 99.02 15.70L99.02 15.70Q99.02 13.72 99.75 12.04Q100.47 10.36 101.79 9.12Q103.11 7.87 104.89 7.19Q106.67 6.50 108.75 6.50L108.75 6.50Q110.86 6.50 112.62 7.19Q114.39 7.87 115.70 9.12Q117.01 10.36 117.74 12.03Q118.48 13.69 118.48 15.70L118.48 15.70Q118.48 17.68 117.74 19.37Q117.01 21.06 115.70 22.29Q114.39 23.52 112.62 24.21Q110.86 24.89 108.78 24.89ZM108.75 21.39L108.75 21.39Q109.94 21.39 110.95 20.98Q111.95 20.58 112.71 19.81Q113.48 19.05 113.89 18.01Q114.31 16.97 114.31 15.70L114.31 15.70Q114.31 14.43 113.89 13.39Q113.48 12.35 112.73 11.58Q111.98 10.82 110.96 10.42Q109.94 10.01 108.75 10.01L108.75 10.01Q107.56 10.01 106.55 10.42Q105.55 10.82 104.79 11.58Q104.03 12.35 103.61 13.39Q103.19 14.43 103.19 15.70L103.19 15.70Q103.19 16.94 103.61 18.00Q104.03 19.05 104.77 19.81Q105.52 20.58 106.54 20.98Q107.56 21.39 108.75 21.39ZM133.77 24.89L133.77 24.89Q131.64 24.89 129.68 24.32Q127.73 23.75 126.53 22.84L126.53 22.84L127.93 19.74Q129.07 20.55 130.64 21.07Q132.20 21.59 133.80 21.59L133.80 21.59Q135.02 21.59 135.77 21.35Q136.52 21.11 136.87 20.68Q137.23 20.25 137.23 19.69L137.23 19.69Q137.23 18.98 136.67 18.56Q136.11 18.14 135.20 17.87Q134.28 17.60 133.18 17.36Q132.07 17.12 130.97 16.77Q129.86 16.41 128.95 15.85Q128.03 15.29 127.46 14.38Q126.89 13.46 126.89 12.04L126.89 12.04Q126.89 10.52 127.71 9.26Q128.54 8.00 130.20 7.25Q131.87 6.50 134.38 6.50L134.38 6.50Q136.06 6.50 137.68 6.90Q139.31 7.29 140.56 8.08L140.56 8.08L139.28 11.20Q138.04 10.49 136.80 10.15Q135.55 9.81 134.36 9.81L134.36 9.81Q133.16 9.81 132.40 10.09Q131.64 10.36 131.31 10.81Q130.98 11.25 130.98 11.84L130.98 11.84Q130.98 12.52 131.54 12.94Q132.10 13.36 133.01 13.62Q133.92 13.87 135.03 14.12Q136.13 14.38 137.24 14.71Q138.35 15.04 139.26 15.60Q140.17 16.16 140.75 17.07Q141.32 17.99 141.32 19.38L141.32 19.38Q141.32 20.88 140.48 22.13Q139.64 23.37 137.98 24.13Q136.31 24.89 133.77 24.89ZM168.14 24.59L164.03 24.59L164.03 6.81L171.72 6.81Q174.11 6.81 175.84 7.58Q177.57 8.36 178.51 9.81Q179.45 11.25 179.45 13.26L179.45 13.26Q179.45 15.24 178.51 16.69Q177.57 18.14 175.84 18.91Q174.11 19.69 171.72 19.69L171.72 19.69L166.31 19.69L168.14 17.83L168.14 24.59ZM168.14 8.21L168.14 18.29L166.31 16.33L171.50 16.33Q173.40 16.33 174.34 15.52Q175.28 14.71 175.28 13.26L175.28 13.26Q175.28 11.79 174.34 10.97Q173.40 10.16 171.50 10.16L171.50 10.16L166.31 10.16L168.14 8.21ZM205.28 24.59L201.17 24.59L201.17 6.81L205.28 6.81L205.28 24.59ZM193.09 24.59L188.97 24.59L188.97 6.81L193.09 6.81L193.09 24.59ZM201.47 17.30L192.78 17.30L192.78 13.82L201.47 13.82L201.47 17.30ZM217.73 24.59L213.51 24.59L221.44 6.81L225.50 6.81L233.45 24.59L229.14 24.59L222.63 8.89L224.26 8.89L217.73 24.59ZM228.83 20.78L217.48 20.78L218.57 17.66L227.71 17.66L228.83 20.78ZM245.77 24.59L241.66 24.59L241.66 6.81L249.25 6.81Q252.96 6.81 255.02 8.52Q257.08 10.24 257.08 13.26L257.08 13.26Q257.08 15.24 256.14 16.68Q255.20 18.11 253.47 18.87Q251.74 19.64 249.36 19.64L249.36 19.64L243.95 19.64L245.77 17.83L245.77 24.59ZM257.41 24.59L252.96 24.59L248.52 18.14L252.91 18.14L257.41 24.59ZM245.77 8.21L245.77 18.29L243.95 16.36L249.13 16.36Q251.03 16.36 251.97 15.53Q252.91 14.71 252.91 13.26L252.91 13.26Q252.91 11.79 251.97 10.97Q251.03 10.16 249.13 10.16L249.13 10.16L243.95 10.16L245.77 8.21ZM270.54 24.59L266.68 24.59L266.68 6.81L270.09 6.81L277.66 19.36L275.85 19.36L283.29 6.81L286.67 6.81L286.72 24.59L282.86 24.59L282.84 12.73L283.55 12.73L277.60 22.71L275.75 22.71L269.68 12.73L270.54 12.73L270.54 24.59ZM299.17 24.59L294.95 24.59L302.88 6.81L306.95 6.81L314.90 24.59L310.58 24.59L304.07 8.89L305.70 8.89L299.17 24.59ZM310.27 20.78L298.92 20.78L300.01 17.66L309.16 17.66L310.27 20.78Z" transform="translate(0, 0)"></path></g></svg></g></svg>